<svg width="311" height="230" viewBox="0 0 311 230" fill="none" xmlns="http://www.w3.org/2000/svg">
<g clip-path="url(#clip0)">
<path d="M281.306 226.122C314.401 200.975 329.14 131.247 275.404 97.0548C239.828 74.4225 217.703 87.3334 177.681 72.3613C128.824 54.0883 121.541 -1.12064 62.1122 26.0451C30.6275 40.4323 8.80152 80.9824 4.96176 127.069C1.19865 172.201 17.2058 203.169 49.917 224.36C126.733 227.626 203.703 227.034 281.306 226.122Z" fill="#DFF3FC"/>
<path d="M145.347 27.7861C140.35 47.8418 158.908 67.6955 178.469 75.9267C198.023 84.1649 220.449 83.183 241.403 79.2554C250.442 77.5632 259.738 75.1816 266.756 69.4226C273.78 63.6635 277.85 53.6635 274.003 45.5855C270.609 38.4616 262.337 34.8125 254.456 32.9393C246.574 31.066 238.198 30.3 231.18 26.3585C224.518 22.6189 219.793 16.4281 214.002 11.5256C203.298 2.47966 188.267 -2.00502 174.35 0.857096C160.434 3.71921 149.598 10.7387 145.347 27.7861Z" fill="#DFF3FC"/>
<path d="M295.076 120.035V104.861H289.32C288.63 102.208 287.578 99.7075 286.226 97.4025L290.296 93.3287L279.557 82.5975L275.48 86.6643C273.174 85.3133 270.672 84.2618 268.017 83.5724V77.8203H252.832V83.5724C250.177 84.2618 247.675 85.3133 245.369 86.6643L241.292 82.5975L230.553 93.3287L234.623 97.4025C233.271 99.7075 232.225 102.208 231.529 104.861H225.772V120.035H231.529C232.225 122.688 233.278 125.188 234.623 127.493L230.553 131.567L241.292 142.298L245.369 138.231C247.675 139.582 250.177 140.627 252.832 141.323V147.075H268.017V141.323C270.672 140.627 273.174 139.582 275.48 138.231L279.557 142.298L290.296 131.567L286.226 127.493C287.578 125.188 288.63 122.688 289.32 120.035H295.076ZM260.435 125.592C253.166 125.592 247.278 119.708 247.278 112.444C247.278 105.188 253.166 99.3036 260.435 99.3036C267.696 99.3036 273.585 105.188 273.585 112.444C273.585 119.708 267.689 125.592 260.435 125.592Z" fill="#84A9FF"/>
<path d="M249.201 158.05L246.309 150.522L243.452 151.615C242.602 150.431 241.605 149.394 240.497 148.503L241.738 145.71L234.372 142.43L233.124 145.223C231.724 144.993 230.281 144.944 228.832 145.104L227.738 142.249L220.211 145.146L221.306 148.001C220.121 148.851 219.083 149.847 218.191 150.954L215.396 149.714L212.114 157.075L214.908 158.321C214.678 159.721 214.636 161.163 214.79 162.611L211.933 163.704L214.825 171.232L217.682 170.139C218.532 171.323 219.529 172.36 220.637 173.252L219.396 176.044L226.762 179.324L228.009 176.532C229.41 176.762 230.853 176.803 232.302 176.65L233.396 179.505L240.929 176.615L239.835 173.76C241.02 172.911 242.058 171.915 242.95 170.808L245.745 172.047L249.027 164.686L246.233 163.44C246.463 162.04 246.511 160.599 246.351 159.15L249.201 158.05ZM233.076 167.395C229.473 168.774 225.431 166.977 224.044 163.377C222.664 159.777 224.462 155.738 228.065 154.359C231.668 152.98 235.71 154.777 237.09 158.377C238.476 161.97 236.672 166.016 233.076 167.395Z" stroke="#84A9FF" stroke-miterlimit="10"/>
<path d="M224.525 131.658L222.574 126.574L220.643 127.312C220.072 126.512 219.396 125.808 218.643 125.209L219.487 123.322L214.511 121.108L213.668 122.995C212.72 122.842 211.744 122.807 210.769 122.918L210.03 120.989L204.943 122.939L205.682 124.868C204.88 125.439 204.176 126.115 203.577 126.867L201.689 126.024L199.472 130.996L201.361 131.839C201.208 132.786 201.173 133.754 201.284 134.736L199.354 135.474L201.305 140.557L203.236 139.819C203.814 140.62 204.483 141.323 205.236 141.922L204.392 143.81L209.368 146.024L210.211 144.137C211.159 144.29 212.128 144.325 213.11 144.213L213.849 146.142L218.936 144.193L218.197 142.264C218.999 141.686 219.703 141.017 220.302 140.265L222.19 141.108L224.407 136.135L222.518 135.293C222.671 134.346 222.706 133.371 222.595 132.396L224.525 131.658ZM213.633 137.974C211.201 138.907 208.469 137.688 207.535 135.258C206.601 132.828 207.821 130.098 210.253 129.165C212.685 128.232 215.417 129.45 216.351 131.881C217.285 134.311 216.065 137.041 213.633 137.974Z" stroke="#84A9FF" stroke-miterlimit="10"/>
<path d="M222.755 42.6394C222.755 50.2648 219.187 57.0614 213.64 61.4486C209.556 64.6868 204.393 66.6088 198.762 66.6088C193.152 66.6088 187.981 64.6868 183.884 61.4486C178.33 57.0545 174.769 50.2578 174.769 42.6394C174.769 29.4012 185.507 18.6631 198.762 18.6631C212.016 18.6631 222.755 29.4012 222.755 42.6394Z" fill="#303FC5" stroke="#303FC5" stroke-miterlimit="10"/>
<path d="M199.737 42.543C204.042 42.0121 207.101 38.0942 206.57 33.7923C206.039 29.4904 202.118 26.4334 197.813 26.9644C193.508 27.4953 190.449 31.4132 190.98 35.7151C191.511 40.017 195.432 43.074 199.737 42.543Z" fill="white"/>
<path d="M213.64 58.4265C209.557 61.6647 204.393 63.5867 198.762 63.5867C193.152 63.5867 187.981 61.6647 183.884 58.4265C185.417 51.6786 186.832 45.8569 188.302 44.3805C190.379 42.3053 195.891 41.1006 198.755 41.1006C201.619 41.1006 207.396 42.5699 208.462 43.6354C210.637 45.8011 212.511 51.783 213.64 58.4265Z" fill="white"/>
<path d="M164.288 101.734V89.8955C164.288 86.6643 166.908 84.0459 170.141 84.0459H207.466C210.699 84.0459 213.319 86.6643 213.319 89.8955V101.734C213.319 104.965 210.699 107.583 207.466 107.583H170.148C166.915 107.59 164.288 104.965 164.288 101.734Z" fill="#303FC5"/>
<path d="M180.051 101.114L161.988 118.698L191.263 103.914" fill="#303FC5"/>
<path d="M168.817 89.6031V89.5404C168.817 89.0599 169.207 88.6699 169.688 88.6699H188.141C188.622 88.6699 189.012 89.0599 189.012 89.5404V89.6031C189.012 90.0836 188.622 90.4735 188.141 90.4735H169.688C169.207 90.4735 168.817 90.0836 168.817 89.6031Z" fill="white"/>
<path d="M189.841 89.6031V89.5404C189.841 89.0599 190.232 88.6699 190.712 88.6699H206.817C207.298 88.6699 207.688 89.0599 207.688 89.5404V89.6031C207.688 90.0836 207.298 90.4735 206.817 90.4735H190.712C190.232 90.4735 189.841 90.0836 189.841 89.6031Z" fill="white"/>
<path d="M182.81 93.566V93.5033C182.81 93.0228 183.2 92.6328 183.681 92.6328H206.817C207.298 92.6328 207.688 93.0228 207.688 93.5033V93.566C207.688 94.0465 207.298 94.4364 206.817 94.4364H183.681C183.2 94.4364 182.81 94.0465 182.81 93.566Z" fill="white"/>
<path d="M168.817 93.566V93.5033C168.817 93.0228 169.207 92.6328 169.688 92.6328H180.023C180.503 92.6328 180.894 93.0228 180.894 93.5033V93.566C180.894 94.0465 180.503 94.4364 180.023 94.4364H169.688C169.207 94.4364 168.817 94.0465 168.817 93.566Z" fill="white"/>
<path d="M186.022 97.5279V97.4652C186.022 96.9847 186.413 96.5947 186.894 96.5947H206.817C207.298 96.5947 207.688 96.9847 207.688 97.4652V97.5279C207.688 98.0084 207.298 98.3983 206.817 98.3983H186.894C186.413 98.3983 186.022 98.0084 186.022 97.5279Z" fill="white"/>
<path d="M168.817 97.5279V97.4652C168.817 96.9847 169.207 96.5947 169.688 96.5947H183.451C183.932 96.5947 184.322 96.9847 184.322 97.4652V97.5279C184.322 98.0084 183.932 98.3983 183.451 98.3983H169.688C169.207 98.3983 168.817 98.0084 168.817 97.5279Z" fill="white"/>
<path d="M168.817 101.491V101.428C168.817 100.948 169.207 100.558 169.688 100.558H174.796C175.277 100.558 175.667 100.948 175.667 101.428V101.491C175.667 101.971 175.277 102.361 174.796 102.361H169.688C169.207 102.361 168.817 101.971 168.817 101.491Z" fill="white"/>
<path d="M177.472 101.491V101.428C177.472 100.948 177.862 100.558 178.343 100.558H206.817C207.298 100.558 207.689 100.948 207.689 101.428V101.491C207.689 101.971 207.298 102.361 206.817 102.361H178.343C177.862 102.361 177.472 101.971 177.472 101.491Z" fill="white"/>
<path d="M72.1595 84.978C77.5374 73.4285 72.5278 59.7092 60.9701 54.3351C49.4124 48.9609 35.6834 53.967 30.3055 65.5165C24.9276 77.066 29.9372 90.7853 41.4949 96.1594C53.0525 101.534 66.7815 96.5275 72.1595 84.978Z" fill="#303FC5"/>
<path d="M47.6391 91.8433C50.555 90.8198 52.0885 87.628 51.0643 84.7142C50.0401 81.8003 46.846 80.2679 43.9301 81.2914C41.0142 82.3148 39.4807 85.5067 40.5049 88.4205C41.5291 91.3343 44.7231 92.8668 47.6391 91.8433Z" fill="white"/>
<path d="M42.8504 88.5716L42.5786 85.0271L45.5194 83.0215L48.725 84.5605L48.9968 88.105L46.056 90.1106L42.8504 88.5716Z" fill="#303FC5"/>
<path d="M58.5421 69.1924C61.4521 68.1529 62.9679 64.9528 61.9276 62.0448C60.8873 59.1368 57.685 57.6222 54.7749 58.6617C51.8649 59.7012 50.3492 62.9013 51.3894 65.8093C52.4297 68.7173 55.6321 70.2319 58.5421 69.1924Z" fill="white"/>
<path d="M53.8892 65.5982L54.0843 61.0857L57.485 58.1191L60.6906 59.6581L60.4955 64.1637L57.0948 67.1372L53.8892 65.5982Z" fill="#303FC5"/>
<path d="M49.6587 83.9829L45.3799 81.9285L48.5437 74.6375C48.7458 74.1779 48.9618 73.7182 49.1987 73.2726L52.9131 66.2461L57.1919 68.3004L54.1396 75.4801C53.9026 76.0372 53.6448 76.5804 53.3591 77.1096L49.6587 83.9829Z" fill="white"/>
<path d="M67.2549 87.6607C68.0772 87.2776 81.3247 87.8835 81.3247 87.8835L71.7776 79.123L67.2549 87.6607Z" fill="#303FC5"/>
<path d="M125.696 36.2504C130.669 24.7608 125.38 11.4176 113.882 6.4477C102.384 1.47777 89.0319 6.76307 84.0584 18.2527C79.085 29.7424 84.374 43.0856 95.8719 48.0555C107.37 53.0254 120.722 47.7401 125.696 36.2504Z" fill="#303FC5"/>
<path d="M105.639 7.93262H104.127V26.9716H105.639V7.93262Z" fill="white"/>
<path d="M88.1457 37.9636L89.0063 39.2061L104.883 28.2243L104.023 26.9819L88.1457 37.9636Z" fill="white"/>
<path d="M106.97 27.2503C106.97 28.3993 106.036 29.3394 104.879 29.3394C103.729 29.3394 102.789 28.4063 102.789 27.2503C102.789 26.1012 103.722 25.1611 104.879 25.1611C106.036 25.1611 106.97 26.1012 106.97 27.2503Z" fill="white"/>
<path d="M166.468 180.745C165.123 160.02 174.197 138.572 189.479 126.302C189.953 147.13 180.97 168.21 166.468 180.745Z" fill="#84A9FF"/>
<path d="M186.984 131.88C180.545 143.872 174.977 156.42 170.35 169.366C164.726 185.083 160.301 201.782 150.67 214.958" stroke="#254EDB" stroke-miterlimit="10" stroke-linecap="round"/>
<path d="M161.646 193.78C169.382 176.489 184.734 163.425 201.661 159.728C194.455 178.258 178.246 192.395 161.646 193.78Z" fill="#84A9FF"/>
<path d="M197.507 163.537C185.946 173.704 174.19 183.586 162.239 193.175" stroke="#254EDB" stroke-miterlimit="10" stroke-linecap="round"/>
<path d="M157.082 208.843C167.417 193.419 186.483 185.369 202.26 189.77C190.657 204.999 171.549 213.07 157.082 208.843Z" fill="#84A9FF"/>
<path d="M198.476 190.884C184.929 199.352 170.315 205.605 155.249 209.366" stroke="#254EDB" stroke-miterlimit="10" stroke-linecap="round"/>
<path d="M162.664 188.537C165.967 171.17 161.012 151.81 149.981 139.004C145.458 156.072 149.772 176.072 162.664 188.537Z" fill="#84A9FF"/>
<path d="M151.117 143.433C153.291 159.589 157.159 174.721 163.152 189.512" stroke="#254EDB" stroke-miterlimit="10" stroke-linecap="round"/>
<path d="M156.991 203.328C155.583 185.473 146.427 168.704 133.033 159.449C133.806 168.906 136.322 178.022 140.315 186.309C144.907 195.828 151.653 201.866 156.991 203.328Z" fill="#84A9FF"/>
<path d="M135.019 163.063C140.287 177.952 147.869 191.754 157.326 203.704" stroke="#254EDB" stroke-miterlimit="10" stroke-linecap="round"/>
<path d="M260.428 199.045C267.738 180.041 284.554 164.623 303.098 159.93C294.972 178.676 278.387 193.788 260.428 199.045Z" fill="#84A9FF"/>
<path d="M298.603 163.878C287.996 171.935 277.92 180.842 268.526 190.487C257.111 202.2 246.344 215.264 232.428 223.077" stroke="#254EDB" stroke-miterlimit="10" stroke-linecap="round"/>
<path d="M250.818 208.691C264.749 196.441 283.676 191.065 300.15 194.672C286.185 208.245 266.059 214.227 250.818 208.691Z" fill="#84A9FF"/>
<path d="M294.917 196.379C280.526 200.724 266.08 204.729 251.585 208.398" stroke="#254EDB" stroke-miterlimit="10" stroke-linecap="round"/>
<path d="M240.602 220.25C256.066 210.724 276.219 211.33 288.359 221.685C271.857 230.515 251.654 229.909 240.602 220.25Z" fill="#84A9FF"/>
<path d="M284.561 221.128C269.118 223.147 253.627 222.757 238.776 219.965" stroke="#254EDB" stroke-miterlimit="10" stroke-linecap="round"/>
<path d="M253.871 204.435C263.913 190.313 267.474 171.044 262.979 155.139C251.975 168.495 247.585 188.07 253.871 204.435Z" fill="#84A9FF"/>
<path d="M262.163 159.54C257.452 174.819 254.672 189.874 253.905 205.501" stroke="#254EDB" stroke-miterlimit="10" stroke-linecap="round"/>
<path d="M242.79 215.299C248.867 198.823 247.654 180.146 239.612 166.441C236.421 175.181 234.901 184.324 235.034 193.336C235.18 203.684 238.665 211.817 242.79 215.299Z" fill="#84A9FF"/>
<path d="M239.877 170.467C238.427 185.878 239.466 201.268 242.922 215.766" stroke="#254EDB" stroke-miterlimit="10" stroke-linecap="round"/>
<path d="M53.2482 165.822C45.7986 143.043 24.997 124.638 0.808594 119.415C10.976 139.123 29.4222 154.805 53.2482 165.822Z" fill="#84A9FF"/>
<path d="M54.5093 169.352C38.1816 160.132 17.7284 158.099 0 163.928C16.4462 172.138 35.9307 174.422 54.5093 169.352Z" fill="#84A9FF"/>
<path d="M59.0252 174.297C41.3804 171.853 22.9063 176.198 8.57861 186.163C24.8227 192.061 44.3142 188.231 59.0252 174.297Z" fill="#84A9FF"/>
<path d="M64.5234 185.083C47.0528 185.014 29.8749 193.308 19.603 206.783C27.3801 208.343 35.6381 207.409 42.767 204.178C49.903 200.954 55.8822 195.446 64.5234 185.083Z" fill="#84A9FF"/>
<path d="M76.8439 203.141C59.6173 200.188 41.2617 205.522 28.8364 217.096C36.2511 219.91 44.5509 220.362 52.1398 218.364C59.7218 216.358 66.5581 211.922 76.8439 203.141Z" fill="#84A9FF"/>
<path d="M58.2445 166.901C46.8716 151.581 43.7844 130.933 50.2444 113.363C55.1783 121.713 59.4362 130.543 61.4222 139.93C63.4083 149.317 63.0251 159.324 58.2445 166.901Z" fill="#84A9FF"/>
<path d="M65.1922 181.686C62.4953 165.404 68.0703 148.155 79.8335 136.365C81.1854 153.204 76.0286 170.362 65.1922 181.686Z" fill="#84A9FF"/>
<path d="M6.09766 123.496C40.7183 145.634 67.7987 178.628 82.0915 216.121" stroke="#254EDB" stroke-miterlimit="10" stroke-linecap="round"/>
<path d="M51.3179 121.441C55.527 138.531 58.0915 155.975 58.9556 173.475" stroke="#254EDB" stroke-miterlimit="10" stroke-linecap="round"/>
<path d="M77.2485 142.974C75.8687 156.762 71.6039 170.237 64.7954 182.375" stroke="#254EDB" stroke-miterlimit="10" stroke-linecap="round"/>
<path d="M7.28955 164.324C23.1643 167.34 39.2969 168.976 55.4364 169.213" stroke="#254EDB" stroke-miterlimit="10" stroke-linecap="round"/>
<path d="M16.8506 184.805C31.4849 183.739 45.8892 180.202 59.1995 174.38" stroke="#254EDB" stroke-miterlimit="10" stroke-linecap="round"/>
<path d="M25.624 204.324C39.1294 197.59 52.6348 190.849 66.1402 184.122" stroke="#254EDB" stroke-miterlimit="10" stroke-linecap="round"/>
<path d="M34.4048 216.212C52.0356 212.813 57.2761 208.753 76.8443 203.141" stroke="#254EDB" stroke-miterlimit="10" stroke-linecap="round"/>
<path d="M146.036 183.935C146.036 183.935 147.563 197.911 149.27 199.032C152.322 201.045 187.654 205.696 187.654 205.696L186.497 214.882C186.497 214.882 138.106 219.227 136.05 216.811C132.482 212.618 126.21 192.396 126.21 192.396L146.036 183.935Z" fill="#E06A58"/>
<path d="M122.705 147.952L126.615 138.572C126.615 138.572 137.221 143.551 140.719 149.7C144.461 156.274 149.04 191.225 149.04 191.225C149.04 191.225 130.315 195.536 126.872 193.705C123.43 191.873 122.705 147.952 122.705 147.952Z" fill="#F2AE30"/>
<path d="M92.928 104.415C90.1893 103.412 87.2903 102.535 84.3564 102.758C81.4226 102.98 78.4261 104.533 77.4295 107.11C76.7187 108.934 77.0462 111.086 75.9243 112.73C74.8511 114.304 72.7187 114.958 70.7256 115.09C68.7256 115.23 66.7116 114.965 64.7256 115.223C58.5931 116.038 54.2167 122.695 56.2307 128.148C57.0321 130.32 58.6767 132.395 58.3004 134.659C57.9032 137.082 55.3596 138.677 54.3143 140.926C52.9275 143.921 54.5861 147.549 57.3248 149.589C60.0635 151.622 63.6245 152.395 67.081 152.911C71.8406 153.621 76.7536 153.955 81.4574 152.953C86.1613 151.95 90.6562 149.471 93.0882 145.599C94.1684 143.886 94.8234 141.95 96.0778 140.341C98.6702 137.019 103.263 135.731 106.879 133.377C110.831 130.794 113.73 125.766 111.402 121.831C109.158 118.05 103.318 117.207 100.977 113.482C100.008 111.943 99.7782 110.111 99.151 108.433C98.5099 106.748 96.9768 105.898 92.928 104.415Z" fill="#0A2240"/>
<path d="M108.886 150.801C109.576 151.595 110.392 152.465 111.521 152.542C112.712 152.625 113.709 151.783 114.475 150.968C118.433 146.783 121.047 141.643 122.106 136.344C121.123 135.787 120.176 135.251 119.319 134.749C118.524 134.276 117.925 133.614 117.583 132.841C117.346 132.27 117.263 131.671 117.325 131.045C117.883 125.808 118.378 122.89 120.217 117.577C111.479 115.606 103.235 113.266 98.496 109.311C97.9176 111.748 97.2346 116.518 95.7782 121.246C94.2242 126.253 91.799 131.205 87.6875 133.336C95.7573 138.099 102.956 144.018 108.886 150.801Z" fill="#F9A07B"/>
<path d="M117.326 131.051C117.263 131.678 117.347 132.284 117.583 132.848C112.413 139.115 100.852 130.926 95.7783 121.253C97.2348 116.525 97.9177 111.755 98.4961 109.317C103.228 113.273 111.479 115.62 120.218 117.583C118.378 122.897 117.883 125.808 117.326 131.051Z" fill="#E06A58"/>
<path d="M131.723 206.817C130.58 214.38 138.747 222.521 138.949 226.56C121.604 226.56 85.2693 227.618 66.7674 225.104C65.9242 220.438 75.0602 209.944 75.0602 199.582C75.0602 198.21 75.0044 196.706 74.8929 195.09C74.6002 190.466 73.9173 184.965 73.1577 179.324C71.095 164.192 68.3493 148.008 70.3772 144.651C74.3493 138.112 83.6386 133.67 88.245 131.762C89.8269 131.107 90.8582 130.752 90.9349 130.71C96.712 140.557 108.468 148.955 112.907 148.579C114.141 148.482 117.799 147.207 120.217 135.041C121.158 135.578 122.099 136.072 123.033 136.553C127.625 138.941 131.932 140.912 133.172 143.983C136.448 152.068 139.66 172.451 138.949 179.7C138.232 187.012 135.291 192.597 133.228 199.937C132.747 201.657 132.308 203.482 131.953 205.445C131.862 205.884 131.792 206.344 131.723 206.817Z" fill="#FFC73C"/>
<path d="M138.949 226.56C121.604 226.56 85.2693 227.618 66.7674 225.105C65.9242 220.439 75.0602 209.944 75.0602 199.582C75.0602 198.21 75.0044 196.706 74.8929 195.091C74.6002 190.467 73.9173 184.965 73.1577 179.325C76.44 182.786 81.2275 168.162 83.346 172.444C94.8095 195.564 103.848 201.643 119.555 201.643C124.238 201.643 128.559 200.996 133.228 199.937C132.747 201.657 132.308 203.482 131.953 205.446C131.869 205.891 131.793 206.351 131.723 206.825C130.58 214.373 138.747 222.514 138.949 226.56Z" fill="#FFBB33"/>
<path d="M123.033 136.553C122.287 141.963 120.078 149.255 113.653 151.177C104.97 153.774 92.4054 137.562 88.2451 131.761C89.827 131.107 90.8584 130.752 90.935 130.71C96.7121 140.557 108.468 148.955 112.907 148.579C114.141 148.482 117.799 147.207 120.218 135.041C121.158 135.571 122.099 136.065 123.033 136.553Z" fill="#FCE172"/>
<path d="M126.601 218.419L126.538 224.457L234.553 225.097L234.776 218.252L126.601 218.419Z" fill="#325F73"/>
<path d="M281.369 164.554L278.965 162.117L200.288 161.602L160.817 218.642L162.88 220.299L281.369 164.554Z" fill="#325F73"/>
<path d="M201.807 163.712L162.88 220.3L237.236 220.669L281.369 164.555L201.807 163.712Z" fill="#0B2D50"/>
<path d="M220.595 199.833C225.375 199.833 229.25 197.896 229.25 195.508C229.25 193.12 225.375 191.184 220.595 191.184C215.815 191.184 211.94 193.12 211.94 195.508C211.94 197.896 215.815 199.833 220.595 199.833Z" fill="#3C738C"/>
<path d="M143.919 110.776C145.145 104.201 142.621 98.2156 138.281 97.4075C133.941 96.5993 129.429 101.274 128.203 107.85C126.976 114.425 129.501 120.41 133.84 121.218C138.18 122.026 142.692 117.351 143.919 110.776Z" fill="#56C4F9"/>
<path d="M143.925 90.1394C143.116 95.8636 140.559 102.173 136.831 109.144C135.521 103.433 134.684 96.4764 133.528 89.5196C132.35 82.5489 130.852 75.5781 128.252 69.8817C127.667 68.6213 127.033 67.4166 126.343 66.3024C127.883 66.1561 129.444 66.3024 130.928 66.7132C133.249 67.333 135.423 68.5308 137.2 70.1324C140.155 72.7578 142.134 76.3372 143.312 80.1115C144.28 83.2452 144.454 86.5739 143.925 90.1394Z" fill="#0B2D50"/>
<path d="M139.549 96.0589C139.507 97.187 139.43 98.336 139.326 99.4781C137.737 118.002 129.953 130.711 118.043 130.711C101.228 130.711 90.3286 111.867 90.3286 93.4057C90.3286 75.1953 101.493 62.0129 114.559 63.538C122.092 64.4015 127.597 66.9015 131.507 70.5644C134.092 73.0017 135.96 75.9474 137.235 79.297C138.692 83.0505 139.395 87.2984 139.542 91.8736C139.542 91.8875 139.556 91.9015 139.556 91.9154C139.611 93.2664 139.597 94.6452 139.549 96.0589Z" fill="#F9A07B"/>
<path d="M139.548 96.0592C139.047 94.2695 138.301 92.5216 137.284 90.9548C127.367 96.1358 115.548 98.1344 104.342 96.2403C102.21 98.016 100.126 99.764 98.0288 101.512C98.0706 93.0857 98.1891 87.3823 101.478 83.3016C104.565 79.4715 109.715 78.03 114.593 77.4032C120.085 76.686 125.667 76.7138 131.144 77.5077C133.242 77.8002 135.416 78.2528 137.242 79.3113C138.698 83.0648 139.402 87.3127 139.548 91.8879C139.548 91.9018 139.562 91.9158 139.562 91.9297C139.611 93.2667 139.597 94.6456 139.548 96.0592Z" fill="#E06A58"/>
<path d="M141.974 84.6516C139.667 86.6014 136.775 88.217 133.528 89.5262C124.287 93.2519 112.28 94.4845 102.921 94.0318C98.3217 104.129 96.4611 107.75 95.2834 116.56C90.7886 112.347 87.13 104.631 86.0429 98.5652C84.9697 92.5207 85.0742 86.1767 86.7606 80.2365C89.4157 70.8702 96.1127 65.8563 100.754 63.419C101.911 62.7853 102.956 62.3466 103.764 62.0262C109.695 59.7351 116.378 59.9441 122.461 61.8034C125.779 62.834 128.573 64.575 130.921 66.7198C135.667 71.0026 138.601 76.8034 140.496 81.1488C141.096 82.4789 141.577 83.6836 141.974 84.6516Z" fill="#0B2D50"/>
<path d="M143.925 90.1392C143.542 88.1127 142.97 86.1489 142.162 84.2548C141.709 83.1824 141.151 82.1447 140.503 81.142C138.392 77.8272 135.318 75.0974 131.604 73.8927C130.545 72.4094 129.43 71.0723 128.259 69.8885C124.043 65.6057 119.095 63.1545 113.855 62.2979C109.492 61.5946 104.956 61.9915 100.768 63.4122C101.924 62.7784 102.97 62.3397 103.778 62.0194C109.708 59.7283 116.391 59.9372 122.475 61.7966C125.792 62.8272 128.587 64.5681 130.935 66.713C133.256 67.3328 135.43 68.5305 137.207 70.1322C140.162 72.7576 142.141 76.337 143.319 80.1113C144.28 83.245 144.454 86.5737 143.925 90.1392Z" fill="#225570"/>
<path d="M108.28 101.497C111.388 99.7209 114.615 98.9201 119.138 100.571" stroke="#0B2D50" stroke-width="2" stroke-miterlimit="10" stroke-linecap="round"/>
<path d="M129.562 101.372C132.225 99.3871 136.169 99.1852 138.225 101.372" stroke="#0B2D50" stroke-width="2" stroke-miterlimit="10" stroke-linecap="round"/>
<path d="M126.35 111.497C126.622 112.904 126.476 116.017 125.807 117.416" stroke="#CC454E" stroke-width="2" stroke-miterlimit="10" stroke-linecap="round"/>
<path d="M115.848 112.443C116.556 112.443 117.13 111.539 117.13 110.424C117.13 109.308 116.556 108.404 115.848 108.404C115.14 108.404 114.566 109.308 114.566 110.424C114.566 111.539 115.14 112.443 115.848 112.443Z" fill="#262D40"/>
<path d="M132.608 111.504C133.316 111.504 133.89 110.6 133.89 109.484C133.89 108.369 133.316 107.465 132.608 107.465C131.9 107.465 131.326 108.369 131.326 109.484C131.326 110.6 131.9 111.504 132.608 111.504Z" fill="#262D40"/>
<path d="M124.761 120.167C124.761 120.167 124.51 120.654 124.03 121.316C123.277 122.325 121.995 123.718 120.246 124.261H120.239C119.5 124.498 118.699 124.582 117.807 124.421C115.186 123.955 114.496 121.538 114.371 119.679C114.343 119.317 114.343 118.983 114.35 118.676C114.364 117.924 114.448 117.423 114.448 117.423C118.622 119.721 124.761 120.167 124.761 120.167Z" fill="#CC454E"/>
<path d="M124.763 120.167C124.763 120.167 124.512 120.654 124.031 121.316C121.899 121.288 117.536 120.194 114.352 118.676C114.365 117.924 114.449 117.423 114.449 117.423C118.623 119.721 124.763 120.167 124.763 120.167Z" fill="white"/>
<path d="M120.239 124.254C119.5 124.491 118.699 124.574 117.807 124.414C115.186 123.948 114.497 121.531 114.371 119.672C115.639 119.825 116.866 120.313 117.883 121.086C118.95 121.9 119.765 123.008 120.239 124.254Z" fill="#E8729B"/>
<path d="M95.325 98.3002C95.325 98.3002 95.1787 89.6164 98.7955 80.9882C103.332 70.1595 112.58 65.5286 121.548 65.2153C132.357 64.8322 139.123 72.0815 139.123 72.0815C139.123 72.0815 135.604 65.8768 128.663 64.0941C124.106 62.9242 117.228 62.7361 111.709 64.9785C106.022 67.2835 98.9348 73.6832 96.3703 80.4451C93.8128 87.2069 92.5654 97.7362 92.5654 97.7362L95.325 98.3002Z" fill="#3D86E0"/>
<path d="M95.1424 120.908C99.7704 120.428 102.931 114.357 102.202 107.349C101.473 100.341 97.1302 95.05 92.5022 95.5308C87.8743 96.0116 84.7136 102.082 85.4426 109.09C86.1717 116.098 90.5144 121.389 95.1424 120.908Z" fill="#56C4F9"/>
<path d="M93.0131 118.66C96.0008 118.212 97.7825 113.59 96.9927 108.338C96.2029 103.085 93.1406 99.1912 90.1529 99.6398C87.1652 100.088 85.3834 104.71 86.1733 109.962C86.9631 115.215 90.0254 119.109 93.0131 118.66Z" fill="#3D86E0"/>
<path d="M121.618 130.967C124.097 130.967 126.106 129.717 126.106 128.174C126.106 126.632 124.097 125.382 121.618 125.382C119.14 125.382 117.13 126.632 117.13 128.174C117.13 129.717 119.14 130.967 121.618 130.967Z" fill="#3A92C9"/>
<path d="M99.0742 118.836C99.0742 118.836 105.667 127.304 117.13 128.174" stroke="#3A92C9" stroke-width="2" stroke-miterlimit="10" stroke-linecap="round"/>
<path d="M126.538 202.298L126.106 213.433C126.106 213.433 85.8061 225.502 79.1509 221.686C75.9035 219.819 72.8721 209.555 70.6073 199.534C68.2379 189.005 66.7188 178.754 66.7188 178.754L90.3427 174.13C90.3427 174.13 90.3566 188.524 91.158 196.846C91.4438 199.945 91.8549 202.201 92.4055 202.57C94.4891 203.942 126.538 202.298 126.538 202.298Z" fill="#F9A07B"/>
<path d="M91.1581 196.831C86.8653 198.224 78.5795 200.376 70.6073 199.526C68.2379 188.997 66.7188 178.746 66.7188 178.746L90.3427 174.122C90.3427 174.115 90.3566 188.509 91.1581 196.831Z" fill="#E06A58"/>
<path d="M125.388 202.409C131.382 201.127 141.528 198.049 145.737 196.991C148.727 196.239 156.511 200.264 158.566 204.059C159.465 205.716 160.316 215.104 157.201 214.136C155.64 213.648 155.897 209.623 155.41 207.98C155.012 206.643 153.744 205.347 151.814 204.233C153.103 207.443 153.054 210.243 152.915 213.711C152.887 214.477 152.838 215.278 152.469 215.939C152.093 216.601 151.284 217.074 150.587 216.782C149.877 216.489 149.633 215.605 149.472 214.832C148.922 212.158 148.364 209.484 148.141 206.462C148.197 209.435 148.134 212.416 147.946 215.382C147.807 217.652 146.678 218.899 145.291 218.502C144.671 218.328 144.42 217.757 144.155 217.005C143.737 218.46 142.692 220.069 141.34 219.456C140.518 219.087 140.009 216.12 140.155 213.07C137.563 214.679 134.636 215.361 131.263 215.514C128.239 215.654 125.145 215.09 123.326 213.035C123.507 209.825 124.566 205.076 125.388 202.409Z" fill="#F9A07B"/>
<path d="M144.218 216.545C144.42 214.135 144.211 211.691 143.598 209.365" stroke="#CC454E" stroke-miterlimit="10" stroke-linecap="round"/>
<path d="M87.6874 150.773C85.9731 145.947 79.6943 136.072 79.6943 136.072C79.6943 136.072 70.1123 140.056 66.7116 146.817C60.9554 158.266 63.8822 191.135 63.8822 191.135C71.6384 194.38 87.2066 194.429 93.8338 193.496C93.8338 193.496 91.123 160.418 87.6874 150.773Z" fill="#FFC73C"/>
<path d="M88.9067 152.792C91.52 165.292 92.9207 176.949 93.3667 188.37" stroke="#F2AE30" stroke-miterlimit="10" stroke-linecap="round"/>
<path d="M293.997 223.112H19.2339V229.999H293.997V223.112Z" fill="#0B2D50"/>
</g>
<defs>
<clipPath id="clip0">
<rect width="311" height="230" fill="white"/>
</clipPath>
</defs>
</svg>
